<?xml version="1.0" encoding="UTF-8"?>
<!-- Generator: Adobe Illustrator 19.2.0, SVG Export Plug-In . SVG Version: 6.00 Build 0)  -->
<svg version="1.1" id="Layer_1" xmlns="http://www.w3.org/2000/svg" xmlns:xlink="http://www.w3.org/1999/xlink" x="0px" y="0px" viewBox="0 0 64 64" style="enable-background:new 0 0 64 64;" xml:space="preserve">
<g>
	<path d="M18.1,22.1C12.5,23.6,9,29,10,32.8s4.8-0.5,10.4-2c5.6-1.5,11,0.3,10-3.4S23.8,20.6,18.1,22.1z"/>
	<path d="M13.8,20.3c1.7-0.6,1.9-4.3,1-6.8c-0.9-2.5-3-4-4.7-3.4s-2.3,3.1-1.4,5.6S12.1,21,13.8,20.3z"/>
	<path d="M20.7,18.4c1.8-0.2,3-3.7,2.7-6.3c-0.2-2.6-1.9-4.6-3.7-4.5c-1.8,0.2-3.1,2.4-2.8,5.1C17.1,15.3,18.9,18.6,20.7,18.4z"/>
	<path d="M28.7,10.7c-1.8,0-3.3,2.1-3.3,4.8s1.5,6,3.3,6s3.3-3.4,3.3-6C32,12.8,30.5,10.7,28.7,10.7z"/>
	<path d="M3.3,17.5c-1.6,0.9-1.8,3.5-0.4,5.8c1.3,2.3,4.3,4.5,5.9,3.6c1.6-0.9,1.1-4.6-0.2-6.9S4.9,16.6,3.3,17.5z"/>
	<path d="M45.9,44.2c-5.6-1.5-11.4,1.5-12.3,5.2s4.4,1.9,10,3.4c5.6,1.5,9.4,5.8,10.4,2S51.5,45.7,45.9,44.2z"/>
	<path d="M50.2,42.5c1.7,0.6,4.2-2.1,5.1-4.6s0.3-5-1.4-5.6c-1.7-0.6-3.8,0.9-4.7,3.4S48.5,41.9,50.2,42.5z"/>
	<path d="M43.3,40.6c1.8,0.2,3.6-3.1,3.8-5.7c0.2-2.6-1-4.9-2.8-5.1c-1.8-0.2-3.5,1.9-3.7,4.5C40.3,36.9,41.5,40.4,43.3,40.6z"/>
	<path d="M35.3,43.7c1.8,0,3.3-3.4,3.3-6c0-2.6-1.5-4.8-3.3-4.8c-1.8,0-3.3,2.1-3.3,4.8C32,40.3,33.5,43.7,35.3,43.7z"/>
	<path d="M60.7,39.6c-1.6-0.9-3.9,0.2-5.2,2.5c-1.3,2.3-1.8,6-0.2,6.9c1.6,0.9,4.5-1.3,5.9-3.6S62.2,40.5,60.7,39.6z"/>
</g>
</svg>